<?xml version="1.0" encoding="UTF-8" standalone="no"?>
<svg
   xmlns:dc="http://purl.org/dc/elements/1.1/"
   xmlns:cc="http://creativecommons.org/ns#"
   xmlns:rdf="http://www.w3.org/1999/02/22-rdf-syntax-ns#"
   xmlns:svg="http://www.w3.org/2000/svg"
   xmlns="http://www.w3.org/2000/svg"
   xmlns:sodipodi="http://sodipodi.sourceforge.net/DTD/sodipodi-0.dtd"
   xmlns:inkscape="http://www.inkscape.org/namespaces/inkscape"
   viewBox="0 0 24 24"
   version="1.1"
   id="svg4"
   sodipodi:docname="content-ocr.svg"
   inkscape:version="1.0.1 (3bc2e813f5, 2020-09-07)">
  <sodipodi:namedview
     pagecolor="#ffffff"
     bordercolor="#666666"
     borderopacity="1"
     objecttolerance="10"
     gridtolerance="10"
     guidetolerance="10"
     inkscape:pageopacity="0"
     inkscape:pageshadow="2"
     inkscape:window-width="1920"
     inkscape:window-height="1032"
     id="namedview39"
     showgrid="false"
     inkscape:zoom="35.791667"
     inkscape:cx="6.5065795"
     inkscape:cy="14.814192"
     inkscape:window-x="0"
     inkscape:window-y="24"
     inkscape:window-maximized="1"
     inkscape:current-layer="svg4" />
  <metadata
     id="metadata10">
    <rdf:RDF>
      <cc:Work
         rdf:about="">
        <dc:format>image/svg+xml</dc:format>
        <dc:type
           rdf:resource="http://purl.org/dc/dcmitype/StillImage" />
        <dc:title />
      </cc:Work>
    </rdf:RDF>
  </metadata>
  <defs
     id="defs8" />
  <text
     xml:space="preserve"
     style="font-style:normal;font-weight:normal;font-size:13.33333333px;line-height:1.25;font-family:sans-serif;fill:#000000;fill-opacity:0;stroke:none;"
     x="0.96278775"
     y="23.118229"
     id="text14"><tspan
       id="tspan12"
       x="0.96278775"
       y="23.118229" /></text>
  <path
     style="fill:#000000;fill-opacity:0;stroke-width:0.0279395"
     d="m 2.0323842,9.7934326 0.0072,-7.1874272 0.081932,-0.2347251 c 0.2615637,-0.7493526 0.927098,-1.267867 1.7266534,-1.3452271 0.143247,-0.01386 2.9146802,-0.025391 6.2030564,-0.02581 l 5.944121,-7.5701e-4 V 1.9913372 2.9831882 H 9.9883586 3.9813737 V 9.982024 16.98086 H 3.0032806 2.0251875 Z"
     id="path40" />
  <path
     style="fill:#000000;fill-opacity:0;stroke-width:0.0279395"
     d="m 2.0323842,9.7934326 0.0072,-7.1874272 0.081932,-0.2347251 c 0.2615637,-0.7493526 0.927098,-1.267867 1.7266534,-1.3452271 0.143247,-0.01386 2.9146802,-0.025391 6.2030564,-0.02581 l 5.944121,-7.5701e-4 V 1.9913372 2.9831882 H 9.9883586 3.9813737 V 9.982024 16.98086 H 3.0032806 2.0251875 Z"
     id="path42" />
  <path
     id="path44"
     style="fill:#000000;fill-opacity:0;stroke-width:0.0279395"
     d="M 10.050781,1 C 6.7624052,1.000419 3.9909033,1.0115306 3.8476562,1.0253906 3.0481008,1.1027507 2.3826573,1.6217411 2.1210938,2.3710938 l -0.082031,0.234375 -0.00391,5.4453124 c 0.026596,-0.045532 0.061433,-0.074219 0.1015626,-0.074219 0.069849,0 0.140625,0.068738 0.140625,0.2070313 V 12 14.054688 15.53125 c 0.00476,0.01366 0.014148,0.05043 0.037109,0.04883 0.0032,-3e-4 0.0047,-0.0066 0.00781,-0.0059 0.031268,0.0076 0.058537,0.02589 0.087891,0.03906 0.027241,0.01568 0.057496,0.02722 0.082031,0.04687 0.1742054,0.139489 0.284929,0.335183 0.4042969,0.519532 0.2872386,0.443601 0.015003,0.0223 0.2949218,0.451171 0.056184,0.108333 0.1277019,0.229847 0.1640626,0.34961 h 0.625 v -6.9980471 -7 h 6.0078124 4.9257808 c 0.08254,-0.01755 0.165878,-0.031224 0.248047,-0.050781 0.0984,-0.02342 0.161517,-0.036592 0.248047,-0.083984 0.02505,-0.012902 0.05214,-0.024348 0.07617,-0.039062 0.01903,-0.011654 0.102911,-0.082444 0.113281,-0.089844 0.03391,-0.024186 0.06764,-0.047209 0.103516,-0.068359 0.111569,-0.065769 0.170479,-0.0872 0.292969,-0.140625 V 1.9921875 1.0292969 C 15.969612,1.0188691 15.942675,1.010061 15.916016,1 Z m 5.945313,1.8183594 c -0.04257,0.018837 -0.08752,0.035951 -0.140625,0.066406 -0.04917,0.0282 -0.09254,0.063468 -0.136719,0.097656 h 0.277344 z M 2.0273438,15.646484 l -0.00195,1.333985 h 0.9785156 0.050781 c -0.00285,-0.0064 -0.00489,-0.01319 -0.00781,-0.01953 -0.027788,-0.06031 -0.059685,-0.118575 -0.089844,-0.177735 -0.2134458,-0.327039 -0.078375,-0.115879 -0.2949218,-0.451172 -0.086772,-0.134355 -0.1893781,-0.32201 -0.3125,-0.429687 -0.016016,-0.01401 -0.036484,-0.02218 -0.054687,-0.0332 -0.060518,-0.02718 -0.1298496,-0.05146 -0.1816407,-0.09375 -0.042257,-0.03451 -0.067858,-0.08037 -0.085937,-0.128907 z m 1.1992187,1.322266 c -0.041077,-0.0049 -0.054482,0.0031 -0.070312,0.01172 h 0.1113281 c -0.011012,-0.0043 -0.018463,-0.009 -0.041016,-0.01172 z" />
  <path
     style="fill:#000000;fill-opacity:0;stroke-width:0.0279395"
     d="m -4.2800195,16.733032 0.0072,-7.1874269 0.081932,-0.2347251 c 0.2615637,-0.7493526 0.927098,-1.267867 1.7266534,-1.3452271 0.143247,-0.01386 2.9146802,-0.025391 6.2030564,-0.02581 l 5.944121,-7.57e-4 v 0.991851 0.991851 H 3.6759549 -2.33103 v 6.9988361 6.998836 h -0.9780931 -0.9780931 z"
     id="use65" />
  <path
     style="fill:#000000;fill-opacity:0;stroke-width:0.0279395"
     d="m -4.5550085,15.717511 0.0072,-7.1874275 0.081932,-0.2347251 c 0.2615637,-0.7493526 0.927098,-1.267867 1.7266534,-1.3452271 0.143247,-0.01386 2.9146802,-0.025391 6.2030564,-0.02581 l 5.944121,-7.57e-4 v 0.991851 0.991851 H 3.4009659 -2.606019 v 6.9988357 6.998836 h -0.9780931 -0.9780931 z"
     id="use67" />
  <path
     style="fill:#000000;fill-opacity:0;stroke-width:0.0279395"
     d="m -4.594069,16.297441 0.0072,-7.1874275 0.081932,-0.2347251 c 0.2615637,-0.7493526 0.927098,-1.267867 1.7266534,-1.3452271 0.143247,-0.01386 2.9146802,-0.025391 6.2030564,-0.02581 l 5.944121,-7.57e-4 v 0.991851 0.991851 H 3.3619054 -2.6450795 v 6.9988357 6.998836 h -0.9780931 -0.9780931 z"
     id="use69" />
  <path
     style="fill:#000000;fill-opacity:0;stroke-width:0.0279395"
     d="m -4.1789316,15.770293 0.0072,-7.1874277 0.081932,-0.2347251 c 0.2615637,-0.7493526 0.927098,-1.267867 1.7266534,-1.3452271 0.143247,-0.01386 2.9146802,-0.025391 6.2030564,-0.02581 l 5.944121,-7.57e-4 v 0.991851 0.991851 H 3.7770428 -2.2299421 v 6.9988359 6.998836 h -0.9780931 -0.9780931 z"
     id="use71" />
  <path
     style="fill:#000000;fill-opacity:0;stroke-width:0.0279395"
     d="m -4.463162,17.018161 0.0072,-7.1874269 0.081932,-0.2347251 c 0.2615637,-0.7493526 0.927098,-1.267867 1.7266534,-1.3452271 0.143247,-0.01386 2.9146802,-0.025391 6.2030564,-0.02581 l 5.944121,-7.57e-4 v 0.991851 0.9918511 H 3.4928124 -2.5141725 v 6.998836 6.998836 h -0.9780931 -0.9780931 z"
     id="use73" />
  <path
     style="fill:#000000;fill-opacity:0;stroke-width:0.0279395"
     d="m -4.3101693,17.461106 0.0072,-7.187427 0.081932,-0.234725 c 0.2615637,-0.7493531 0.927098,-1.2678675 1.7266534,-1.3452276 0.143247,-0.01386 2.9146802,-0.025391 6.2030564,-0.02581 l 5.944121,-7.57e-4 v 0.991851 0.9918506 H 3.6458051 -2.3611798 v 6.998836 6.998836 H -3.3392729 -4.317366 Z"
     id="use75" />
  <path
     style="fill:#000000;fill-opacity:0;stroke-width:0.0279395"
     d="m -3.9227566,16.112409 0.0072,-7.1874276 0.081932,-0.2347251 c 0.2615637,-0.7493526 0.927098,-1.267867 1.7266534,-1.3452271 0.143247,-0.01386 2.9146802,-0.025391 6.2030564,-0.02581 l 5.9441208,-7.57e-4 v 0.991851 0.991851 H 4.0332178 -1.9737671 V 16.301 23.299836 h -0.9780931 -0.9780931 z"
     id="use77" />
  <path
     style="fill:#000000;fill-opacity:0;stroke-width:0.0279395"
     d="m -3.6702622,17.978498 0.0072,-7.187428 0.081932,-0.234725 c 0.2615637,-0.7493522 0.927098,-1.2678666 1.7266534,-1.3452267 0.143247,-0.01386 2.9146802,-0.025391 6.2030564,-0.02581 l 5.9441214,-7.57e-4 v 0.9918507 0.991851 H 4.2857122 -1.7212727 v 6.998836 6.998836 h -0.9780931 -0.9780931 z"
     id="use79" />
  <path
     style="fill:#000000;fill-opacity:0;stroke-width:0.0279395"
     d="m -4.5309869,17.718405 0.0072,-7.187427 0.081932,-0.234725 c 0.2615637,-0.7493528 0.927098,-1.2678672 1.7266534,-1.3452273 0.143247,-0.01386 2.9146802,-0.025391 6.2030564,-0.02581 l 5.944121,-7.57e-4 v 0.991851 0.9918513 H 3.4249875 -2.5819974 v 6.998835 6.998836 h -0.9780931 -0.9780931 z"
     id="use81" />
  <path
     style="fill:#000000;fill-opacity:0;stroke-width:0.0279395"
     d="m -4.95729,15.388337 0.0072,-7.1874272 0.081932,-0.2347251 c 0.2615637,-0.7493526 0.927098,-1.267867 1.7266534,-1.3452271 0.143247,-0.01386 2.9146802,-0.025391 6.2030564,-0.02581 l 5.944121,-7.57e-4 v 0.991851 0.991851 H 2.9986844 -3.0083005 v 6.9988354 6.998836 h -0.9780931 -0.9780931 z"
     id="use83" />
  <path
     style="fill:#000000;fill-opacity:0;stroke-width:0.0279395"
     d="m -4.0477857,15.579265 0.0072,-7.1874268 0.081932,-0.2347251 c 0.2615637,-0.7493526 0.927098,-1.267867 1.7266534,-1.3452271 0.143247,-0.01386 2.9146802,-0.025391 6.2030564,-0.02581 l 5.944121,-7.57e-4 V 7.77717 8.769021 H 3.9081887 -2.0987962 v 6.998836 6.998836 h -0.9780931 -0.9780931 z"
     id="use85" />
  <path
     style="fill:#000000;fill-opacity:0;stroke-width:0.0279395"
     d="m -3.0855713,16.499978 0.0072,-7.1874268 0.081932,-0.2347251 c 0.2615637,-0.7493526 0.927098,-1.267867 1.7266534,-1.3452271 0.143247,-0.01386 2.9146802,-0.025391 6.2030564,-0.02581 L 10.877391,7.706032 V 8.697883 9.689734 H 4.8704031 -1.1365818 v 6.998836 6.998836 H -2.1146749 -3.092768 Z"
     id="use87" />
  <path
     style="fill:#000000;fill-opacity:0;stroke-width:0.0279395"
     d="m -4.4523472,17.413928 0.0072,-7.187427 0.081932,-0.2347252 c 0.2615637,-0.7493526 0.927098,-1.267867 1.7266534,-1.3452271 0.143247,-0.01386 2.9146802,-0.025391 6.2030564,-0.02581 l 5.944121,-7.57e-4 v 0.991851 0.9918513 H 3.5036272 -2.5033577 v 6.998835 6.998836 h -0.9780931 -0.9780931 z"
     id="use89" />
  <path
     style="fill:#000000;fill-opacity:0;stroke-width:0.0279395"
     d="m -4.5576644,17.68967 0.0072,-7.187427 0.081932,-0.234725 c 0.2615637,-0.7493529 0.927098,-1.2678673 1.7266534,-1.3452274 0.143247,-0.01386 2.9146802,-0.025391 6.2030564,-0.02581 l 5.944121,-7.57e-4 v 0.991851 0.9918514 H 3.39831 -2.6086749 v 6.998835 6.998836 H -3.586768 -4.5648611 Z"
     id="use91" />
  <path
     style="fill:#000000;fill-opacity:0;stroke-width:0.0279395"
     d="m -3.8399065,15.956536 0.0072,-7.1874276 0.081932,-0.2347251 c 0.2615637,-0.7493526 0.927098,-1.267867 1.7266534,-1.3452271 0.143247,-0.01386 2.9146802,-0.025391 6.2030564,-0.02581 l 5.9441207,-7.57e-4 v 0.991851 0.991851 H 4.1160679 -1.890917 v 6.9988358 6.998836 h -0.9780931 -0.9780931 z"
     id="use93" />
  <path
     style="fill:#000000;fill-opacity:0;stroke-width:0.0279395"
     d="m -2.6437295,15.688064 0.0072,-7.1874272 0.081932,-0.2347251 c 0.2615637,-0.7493526 0.927098,-1.267867 1.7266534,-1.3452271 0.143247,-0.01386 2.9146802,-0.025391 6.2030564,-0.02581 l 5.9441207,-7.57e-4 v 0.991851 0.991851 H 5.3122449 -0.69474 v 6.9988354 6.998836 h -0.9780931 -0.9780931 z"
     id="use95" />
  <path
     style="fill:#000000;fill-opacity:0;stroke-width:0.0279395"
     d="m -3.431095,17.718328 0.0072,-7.187428 0.081932,-0.234725 c 0.2615637,-0.7493522 0.927098,-1.2678666 1.7266534,-1.3452267 0.143247,-0.01386 2.9146802,-0.025391 6.2030564,-0.02581 l 5.9441212,-7.57e-4 v 0.991851 0.9918507 H 4.5248794 -1.4821055 v 6.998836 6.998836 h -0.9780931 -0.9780931 z"
     id="use97" />
  <text
     xml:space="preserve"
     style="font-style:normal;font-weight:normal;font-size:13.33333333px;line-height:1.25;font-family:sans-serif;fill:#000000;fill-opacity:1;stroke:none;"
     x="1.1318638"
     y="14.7395"
     id="text135"><tspan
       id="tspan133"
       x="1.1318638"
       y="14.7395" /></text>
  <text
     xml:space="preserve"
     style="font-style:normal;font-weight:normal;font-size:13.3333px;line-height:1.25;font-family:sans-serif;fill:#000000;fill-opacity:1;stroke:none"
     x="1.0884871"
     y="7.1355939"
     id="text139"><tspan
       id="tspan137"
       x="1.0884871"
       y="7.1355939" /></text>
  <text
     xml:space="preserve"
     style="font-style:normal;font-weight:normal;font-size:13.3333px;line-height:1.25;font-family:sans-serif;fill:#000000;fill-opacity:1;stroke:none"
     x="7.3368669"
     y="17.017595"
     id="text143"><tspan
       id="tspan141"
       x="7.3368669"
       y="17.017595"
       style="fill:#ffffff">C</tspan></text>
  <text
     xml:space="preserve"
     style="font-style:normal;font-weight:normal;font-size:40px;line-height:1.25;font-family:sans-serif;fill:#000000;fill-opacity:1;stroke:none"
     x="15.872812"
     y="23.784857"
     id="text147"><tspan
       id="tspan145"
       x="15.872812"
       y="23.784857" /></text>
  <text
     xml:space="preserve"
     style="font-size:13.3333px;line-height:1.25;font-family:sans-serif;stroke-width:1"
     x="15.109568"
     y="23.834591"
     id="text151"><tspan
       id="tspan149"
       x="15.109568"
       y="23.834591"
       style="fill:#ffffff;stroke-width:1">R</tspan></text>
  <text
     xml:space="preserve"
     style="font-size:13.3333px;line-height:1.25;font-family:sans-serif"
     x="-0.46628127"
     y="10.158541"
     id="text155"><tspan
       id="tspan153"
       x="-0.46628127"
       y="10.158541"
       style="fill:#ffffff">O</tspan></text>
</svg>
